<?xml version="1.0" standalone="no"?>
<!DOCTYPE svg PUBLIC "-//W3C//DTD SVG 20010904//EN"
 "http://www.w3.org/TR/2001/REC-SVG-20010904/DTD/svg10.dtd">
<svg version="1.0" xmlns="http://www.w3.org/2000/svg"
 width="328.000000pt" height="176.000000pt" viewBox="0 0 328.000000 176.000000"
 preserveAspectRatio="xMidYMid meet">

<g transform="translate(0.000000,176.000000) scale(0.100000,-0.100000)"
fill="#000000" stroke="none">
<path d="M1560 1405 l0 -270 138 -138 137 -137 131 0 130 0 137 137 137 138 0
270 0 270 -138 -138 -137 -137 -130 0 -130 0 -137 137 -138 138 0 -270z m254
-207 c8 -14 6 -22 -10 -39 -18 -17 -25 -19 -43 -10 -20 11 -29 50 -14 65 12
12 56 2 67 -16z m376 3 c7 -15 5 -24 -8 -41 -16 -19 -22 -21 -40 -11 -21 11
-30 50 -15 64 13 14 53 6 63 -12z m-190 -116 c-26 -37 -29 -49 -20 -60 17 -20
79 -19 102 2 25 22 36 8 13 -17 -21 -23 -93 -28 -113 -8 -9 9 -15 9 -24 0 -20
-20 -102 -15 -123 8 -23 25 -12 39 13 17 23 -21 85 -22 102 -2 11 13 8 23 -19
60 l-32 45 66 0 66 0 -31 -45z"/>
<path d="M2728 1313 c-205 -205 -362 -371 -368 -388 -6 -16 -8 -47 -4 -70 6
-36 35 -69 315 -350 170 -171 309 -314 309 -317 0 -4 -44 -7 -97 -7 l-98 0
-305 304 -305 304 -170 2 -170 1 -5 -304 -5 -303 -88 -2 c-98 -2 -125 -13
-157 -66 -40 -64 -35 -67 108 -67 l129 0 11 38 c13 44 54 85 97 99 l30 10 3
131 c4 177 22 174 22 -3 l0 -135 -27 -11 c-79 -32 -95 -47 -108 -101 l-7 -28
124 0 125 0 11 38 c6 21 25 51 42 67 29 28 38 30 116 34 46 1 84 6 84 10 0 4
-25 31 -55 61 l-55 54 0 73 0 73 78 -2 77 -2 -67 -3 -68 -4 0 -65 0 -66 66
-66 66 -67 -94 -6 c-105 -6 -137 -20 -162 -74 -9 -18 -16 -38 -16 -44 0 -8
145 -11 506 -11 l506 0 29 29 c22 22 29 39 29 68 0 37 -12 50 -347 385 l-348
348 348 348 c306 306 347 351 347 378 0 38 -27 64 -66 64 -25 0 -79 -50 -386
-357z"/>
<path d="M91 1314 c-36 -26 -51 -74 -51 -169 l0 -85 665 0 665 0 0 85 c0 146
-39 185 -183 185 l-86 0 -3 -71 c-2 -55 -7 -74 -20 -83 -13 -8 -23 -8 -35 0
-14 9 -19 28 -21 83 l-3 71 -329 0 -330 0 0 -61 c0 -72 -12 -99 -45 -99 -33 0
-45 27 -45 99 l0 61 -78 0 c-55 0 -84 -5 -101 -16z"/>
<path d="M40 580 c0 -430 2 -445 59 -474 26 -14 102 -16 596 -16 547 0 567 1
605 20 71 36 70 32 70 470 l0 390 -665 0 -665 0 0 -390z m398 228 c17 -17 16
-133 -2 -147 -9 -7 -41 -11 -83 -9 l-68 3 -3 69 c-2 38 -1 75 2 83 7 17 137
18 154 1z m332 -7 c15 -29 13 -126 -4 -140 -9 -7 -41 -11 -83 -9 l-68 3 -3 69
c-2 38 -1 75 2 83 4 9 26 13 75 13 59 0 72 -3 81 -19z m328 7 c17 -17 16 -133
-2 -147 -9 -7 -41 -11 -83 -9 l-68 3 -3 69 c-2 38 -1 75 2 83 7 17 137 18 154
1z m-660 -370 c17 -17 16 -133 -2 -147 -9 -7 -41 -11 -83 -9 l-68 3 -3 68 c-2
42 2 74 9 83 14 18 130 19 147 2z m326 -4 c17 -17 22 -118 7 -142 -5 -9 -29
-12 -82 -10 l-74 3 -3 74 c-2 53 1 77 10 82 24 15 125 10 142 -7z m334 4 c14
-14 16 -126 3 -146 -5 -9 -29 -12 -82 -10 l-74 3 -3 68 c-2 42 2 74 9 83 14
18 130 19 147 2z"/>
</g>
</svg>
